# xmcd
#
# Track frame offsets: 
#        150
#        32695
#        53386
#        69512
#        86983
#        113080
#        132105
#        153561
#        172940
#
# Disc length: 2610 seconds
#
# Revision: 0
# Processed by: cddbd v1.5.2PL0 Copyright (c) Steve Scherf et al.
# Submitted via: ExactAudioCopy v0.99pb5
#
DISCID=6b0a3009
DTITLE=Cold Fusion and Rukkanor - Silk Road
DYEAR=2008
DGENRE=Industrial, Folk, Ambient
TTITLE0=Akhmim
TTITLE1=Yarkand
TTITLE2=Saphar
TTITLE3=Gades
TTITLE4=Horaia
TTITLE5=Kandahar
TTITLE6=Charax
TTITLE7=Berenica
TTITLE8=Thaton
EXTD=
EXTT0=
EXTT1=
EXTT2=
EXTT3=
EXTT4=
EXTT5=
EXTT6=
EXTT7=
EXTT8=
PLAYORDER=
